<mxfile host="app.diagrams.net" agent="Mozilla/5.0 (Windows NT 10.0; Win64; x64) AppleWebKit/537.36 (KHTML, like Gecko) Chrome/131.0.0.0 Safari/537.36 OPR/116.0.0.0 (Edition std-2)" version="26.1.0">
  <diagram name="Seite-1" id="GDJDXcgFFGCX7bUb5L40">
    <mxGraphModel dx="1008" dy="1738" grid="1" gridSize="10" guides="1" tooltips="1" connect="1" arrows="1" fold="1" page="1" pageScale="1" pageWidth="827" pageHeight="1169" math="0" shadow="0">
      <root>
        <mxCell id="0" />
        <mxCell id="1" parent="0" />
        <mxCell id="QhZxrAuBMPI-c6FXGaxj-1" value="User" style="rounded=0;whiteSpace=wrap;html=1;" parent="1" vertex="1">
          <mxGeometry x="160" y="220" width="120" height="60" as="geometry" />
        </mxCell>
        <mxCell id="QhZxrAuBMPI-c6FXGaxj-2" value="Posts" style="rounded=0;whiteSpace=wrap;html=1;" parent="1" vertex="1">
          <mxGeometry x="470" y="220" width="120" height="60" as="geometry" />
        </mxCell>
        <mxCell id="QhZxrAuBMPI-c6FXGaxj-3" value="ID" style="ellipse;whiteSpace=wrap;html=1;" parent="1" vertex="1">
          <mxGeometry x="160" y="300" width="120" height="80" as="geometry" />
        </mxCell>
        <mxCell id="QhZxrAuBMPI-c6FXGaxj-4" value="Username" style="ellipse;whiteSpace=wrap;html=1;" parent="1" vertex="1">
          <mxGeometry x="30" y="300" width="120" height="80" as="geometry" />
        </mxCell>
        <mxCell id="QhZxrAuBMPI-c6FXGaxj-5" value="Password (Cryptet)" style="ellipse;whiteSpace=wrap;html=1;" parent="1" vertex="1">
          <mxGeometry x="30" y="210" width="120" height="80" as="geometry" />
        </mxCell>
        <mxCell id="QhZxrAuBMPI-c6FXGaxj-6" value="Created_At" style="ellipse;whiteSpace=wrap;html=1;" parent="1" vertex="1">
          <mxGeometry x="160" y="120" width="120" height="80" as="geometry" />
        </mxCell>
        <mxCell id="QhZxrAuBMPI-c6FXGaxj-7" value="E-Mail" style="ellipse;whiteSpace=wrap;html=1;" parent="1" vertex="1">
          <mxGeometry x="30" y="120" width="120" height="80" as="geometry" />
        </mxCell>
        <mxCell id="QhZxrAuBMPI-c6FXGaxj-8" value="Daily_Streak" style="ellipse;whiteSpace=wrap;html=1;" parent="1" vertex="1">
          <mxGeometry x="610" y="660" width="120" height="80" as="geometry" />
        </mxCell>
        <mxCell id="QhZxrAuBMPI-c6FXGaxj-11" value="" style="endArrow=none;html=1;rounded=0;exitX=1;exitY=0.5;exitDx=0;exitDy=0;entryX=0;entryY=0.5;entryDx=0;entryDy=0;" parent="1" source="QhZxrAuBMPI-c6FXGaxj-1" target="QhZxrAuBMPI-c6FXGaxj-2" edge="1">
          <mxGeometry width="50" height="50" relative="1" as="geometry">
            <mxPoint x="390" y="320" as="sourcePoint" />
            <mxPoint x="440" y="270" as="targetPoint" />
          </mxGeometry>
        </mxCell>
        <mxCell id="QhZxrAuBMPI-c6FXGaxj-12" value="1" style="text;html=1;align=center;verticalAlign=middle;whiteSpace=wrap;rounded=0;" parent="1" vertex="1">
          <mxGeometry x="280" y="220" width="60" height="30" as="geometry" />
        </mxCell>
        <mxCell id="QhZxrAuBMPI-c6FXGaxj-13" value="N" style="text;html=1;align=center;verticalAlign=middle;whiteSpace=wrap;rounded=0;" parent="1" vertex="1">
          <mxGeometry x="410" y="220" width="60" height="30" as="geometry" />
        </mxCell>
        <mxCell id="QhZxrAuBMPI-c6FXGaxj-14" value="Size" style="ellipse;whiteSpace=wrap;html=1;" parent="1" vertex="1">
          <mxGeometry x="750" y="110" width="120" height="80" as="geometry" />
        </mxCell>
        <mxCell id="QhZxrAuBMPI-c6FXGaxj-15" value="Type" style="ellipse;whiteSpace=wrap;html=1;" parent="1" vertex="1">
          <mxGeometry x="610" y="210" width="120" height="80" as="geometry" />
        </mxCell>
        <mxCell id="QhZxrAuBMPI-c6FXGaxj-16" value="Created_At" style="ellipse;whiteSpace=wrap;html=1;" parent="1" vertex="1">
          <mxGeometry x="610" y="120" width="120" height="80" as="geometry" />
        </mxCell>
        <mxCell id="QhZxrAuBMPI-c6FXGaxj-17" value="Likes" style="ellipse;whiteSpace=wrap;html=1;" parent="1" vertex="1">
          <mxGeometry x="470" y="300" width="120" height="80" as="geometry" />
        </mxCell>
        <mxCell id="QhZxrAuBMPI-c6FXGaxj-18" value="Shares" style="ellipse;whiteSpace=wrap;html=1;" parent="1" vertex="1">
          <mxGeometry x="610" y="300" width="120" height="80" as="geometry" />
        </mxCell>
        <mxCell id="QhZxrAuBMPI-c6FXGaxj-20" value="Plant" style="rounded=0;whiteSpace=wrap;html=1;" parent="1" vertex="1">
          <mxGeometry x="470" y="570" width="120" height="60" as="geometry" />
        </mxCell>
        <mxCell id="QhZxrAuBMPI-c6FXGaxj-22" value="" style="endArrow=none;html=1;rounded=0;entryX=0;entryY=0;entryDx=0;entryDy=0;exitX=0.5;exitY=1;exitDx=0;exitDy=0;exitPerimeter=0;" parent="1" source="QhZxrAuBMPI-c6FXGaxj-39" target="QhZxrAuBMPI-c6FXGaxj-20" edge="1">
          <mxGeometry width="50" height="50" relative="1" as="geometry">
            <mxPoint x="390" y="500" as="sourcePoint" />
            <mxPoint x="440" y="450" as="targetPoint" />
          </mxGeometry>
        </mxCell>
        <mxCell id="QhZxrAuBMPI-c6FXGaxj-23" value="1" style="text;html=1;align=center;verticalAlign=middle;whiteSpace=wrap;rounded=0;rotation=60;" parent="1" vertex="1">
          <mxGeometry x="290" y="270" width="60" height="30" as="geometry" />
        </mxCell>
        <mxCell id="QhZxrAuBMPI-c6FXGaxj-24" value="N" style="text;html=1;align=center;verticalAlign=middle;whiteSpace=wrap;rounded=0;rotation=60;" parent="1" vertex="1">
          <mxGeometry x="440" y="520" width="60" height="30" as="geometry" />
        </mxCell>
        <mxCell id="QhZxrAuBMPI-c6FXGaxj-25" value="Plant_Data" style="rounded=0;whiteSpace=wrap;html=1;" parent="1" vertex="1">
          <mxGeometry x="150" y="570" width="120" height="60" as="geometry" />
        </mxCell>
        <mxCell id="QhZxrAuBMPI-c6FXGaxj-29" value="ID" style="ellipse;whiteSpace=wrap;html=1;" parent="1" vertex="1">
          <mxGeometry x="610" y="560" width="120" height="80" as="geometry" />
        </mxCell>
        <mxCell id="QhZxrAuBMPI-c6FXGaxj-30" value="ID" style="ellipse;whiteSpace=wrap;html=1;" parent="1" vertex="1">
          <mxGeometry x="10" y="560" width="120" height="80" as="geometry" />
        </mxCell>
        <mxCell id="QhZxrAuBMPI-c6FXGaxj-31" value="Description" style="ellipse;whiteSpace=wrap;html=1;" parent="1" vertex="1">
          <mxGeometry x="150" y="660" width="120" height="80" as="geometry" />
        </mxCell>
        <mxCell id="QhZxrAuBMPI-c6FXGaxj-33" value="Description" style="ellipse;whiteSpace=wrap;html=1;" parent="1" vertex="1">
          <mxGeometry x="470" y="660" width="120" height="80" as="geometry" />
        </mxCell>
        <mxCell id="QhZxrAuBMPI-c6FXGaxj-35" value="" style="endArrow=none;html=1;rounded=0;exitX=1;exitY=0.5;exitDx=0;exitDy=0;entryX=0;entryY=0.5;entryDx=0;entryDy=0;" parent="1" source="QhZxrAuBMPI-c6FXGaxj-41" target="QhZxrAuBMPI-c6FXGaxj-20" edge="1">
          <mxGeometry width="50" height="50" relative="1" as="geometry">
            <mxPoint x="390" y="510" as="sourcePoint" />
            <mxPoint x="440" y="460" as="targetPoint" />
          </mxGeometry>
        </mxCell>
        <mxCell id="QhZxrAuBMPI-c6FXGaxj-36" value="1" style="text;html=1;align=center;verticalAlign=middle;whiteSpace=wrap;rounded=0;" parent="1" vertex="1">
          <mxGeometry x="270" y="570" width="60" height="30" as="geometry" />
        </mxCell>
        <mxCell id="QhZxrAuBMPI-c6FXGaxj-37" value="N" style="text;html=1;align=center;verticalAlign=middle;whiteSpace=wrap;rounded=0;" parent="1" vertex="1">
          <mxGeometry x="410" y="570" width="60" height="30" as="geometry" />
        </mxCell>
        <mxCell id="QhZxrAuBMPI-c6FXGaxj-38" value="posts" style="rhombus;whiteSpace=wrap;html=1;" parent="1" vertex="1">
          <mxGeometry x="340" y="210" width="80" height="80" as="geometry" />
        </mxCell>
        <mxCell id="QhZxrAuBMPI-c6FXGaxj-40" value="" style="endArrow=none;html=1;rounded=0;entryX=0.5;entryY=0;entryDx=0;entryDy=0;exitX=0;exitY=1;exitDx=0;exitDy=0;" parent="1" source="QhZxrAuBMPI-c6FXGaxj-12" target="QhZxrAuBMPI-c6FXGaxj-39" edge="1">
          <mxGeometry width="50" height="50" relative="1" as="geometry">
            <mxPoint x="280" y="250" as="sourcePoint" />
            <mxPoint x="470" y="570" as="targetPoint" />
          </mxGeometry>
        </mxCell>
        <mxCell id="QhZxrAuBMPI-c6FXGaxj-39" value="has" style="rhombus;whiteSpace=wrap;html=1;" parent="1" vertex="1">
          <mxGeometry x="333.5" y="360" width="80" height="80" as="geometry" />
        </mxCell>
        <mxCell id="QhZxrAuBMPI-c6FXGaxj-42" value="" style="endArrow=none;html=1;rounded=0;exitX=1;exitY=0.5;exitDx=0;exitDy=0;entryX=0;entryY=0.5;entryDx=0;entryDy=0;" parent="1" source="QhZxrAuBMPI-c6FXGaxj-25" target="QhZxrAuBMPI-c6FXGaxj-41" edge="1">
          <mxGeometry width="50" height="50" relative="1" as="geometry">
            <mxPoint x="270" y="600" as="sourcePoint" />
            <mxPoint x="470" y="600" as="targetPoint" />
          </mxGeometry>
        </mxCell>
        <mxCell id="QhZxrAuBMPI-c6FXGaxj-41" value="contains" style="rhombus;whiteSpace=wrap;html=1;" parent="1" vertex="1">
          <mxGeometry x="330" y="560" width="80" height="80" as="geometry" />
        </mxCell>
        <mxCell id="QhZxrAuBMPI-c6FXGaxj-43" value="Comments" style="rounded=0;whiteSpace=wrap;html=1;" parent="1" vertex="1">
          <mxGeometry x="470" y="-50" width="120" height="60" as="geometry" />
        </mxCell>
        <mxCell id="QhZxrAuBMPI-c6FXGaxj-44" value="ID" style="ellipse;whiteSpace=wrap;html=1;" parent="1" vertex="1">
          <mxGeometry x="470" y="-150" width="120" height="80" as="geometry" />
        </mxCell>
        <mxCell id="QhZxrAuBMPI-c6FXGaxj-49" value="User_ID" style="ellipse;whiteSpace=wrap;html=1;" parent="1" vertex="1">
          <mxGeometry x="610" y="-150" width="120" height="80" as="geometry" />
        </mxCell>
        <mxCell id="QhZxrAuBMPI-c6FXGaxj-50" value="Description" style="ellipse;whiteSpace=wrap;html=1;" parent="1" vertex="1">
          <mxGeometry x="610" y="-60" width="120" height="80" as="geometry" />
        </mxCell>
        <mxCell id="QhZxrAuBMPI-c6FXGaxj-51" value="Created_At" style="ellipse;whiteSpace=wrap;html=1;" parent="1" vertex="1">
          <mxGeometry x="330" y="-150" width="120" height="80" as="geometry" />
        </mxCell>
        <mxCell id="QhZxrAuBMPI-c6FXGaxj-53" value="" style="endArrow=none;html=1;rounded=0;entryX=0;entryY=0.5;entryDx=0;entryDy=0;exitX=0.5;exitY=0;exitDx=0;exitDy=0;" parent="1" source="QhZxrAuBMPI-c6FXGaxj-54" target="QhZxrAuBMPI-c6FXGaxj-43" edge="1">
          <mxGeometry width="50" height="50" relative="1" as="geometry">
            <mxPoint x="330" y="190" as="sourcePoint" />
            <mxPoint x="380" y="140" as="targetPoint" />
          </mxGeometry>
        </mxCell>
        <mxCell id="QhZxrAuBMPI-c6FXGaxj-55" value="" style="endArrow=none;html=1;rounded=0;entryX=0.5;entryY=1;entryDx=0;entryDy=0;exitX=0;exitY=1;exitDx=0;exitDy=0;" parent="1" source="QhZxrAuBMPI-c6FXGaxj-12" target="QhZxrAuBMPI-c6FXGaxj-54" edge="1">
          <mxGeometry width="50" height="50" relative="1" as="geometry">
            <mxPoint x="280" y="250" as="sourcePoint" />
            <mxPoint x="470" y="-20" as="targetPoint" />
          </mxGeometry>
        </mxCell>
        <mxCell id="QhZxrAuBMPI-c6FXGaxj-54" value="writes" style="rhombus;whiteSpace=wrap;html=1;" parent="1" vertex="1">
          <mxGeometry x="334" y="60" width="80" height="80" as="geometry" />
        </mxCell>
        <mxCell id="QhZxrAuBMPI-c6FXGaxj-56" value="1" style="text;html=1;align=center;verticalAlign=middle;whiteSpace=wrap;rounded=0;rotation=-45;" parent="1" vertex="1">
          <mxGeometry x="280" y="180" width="60" height="30" as="geometry" />
        </mxCell>
        <mxCell id="QhZxrAuBMPI-c6FXGaxj-57" value="N" style="text;html=1;align=center;verticalAlign=middle;whiteSpace=wrap;rounded=0;rotation=-45;" parent="1" vertex="1">
          <mxGeometry x="410" y="-35" width="60" height="30" as="geometry" />
        </mxCell>
        <mxCell id="QhZxrAuBMPI-c6FXGaxj-58" value="ARUN????" style="ellipse;whiteSpace=wrap;html=1;" parent="1" vertex="1">
          <mxGeometry x="150" y="470" width="120" height="80" as="geometry" />
        </mxCell>
        <mxCell id="QhZxrAuBMPI-c6FXGaxj-59" value="Path (optional)" style="ellipse;whiteSpace=wrap;html=1;" parent="1" vertex="1">
          <mxGeometry x="750" y="210" width="120" height="80" as="geometry" />
        </mxCell>
        <mxCell id="QhZxrAuBMPI-c6FXGaxj-60" value="User_ID" style="ellipse;whiteSpace=wrap;html=1;" parent="1" vertex="1">
          <mxGeometry x="750" y="300" width="120" height="80" as="geometry" />
        </mxCell>
        <mxCell id="QhZxrAuBMPI-c6FXGaxj-61" value="Plant_Data_ID" style="ellipse;whiteSpace=wrap;html=1;" parent="1" vertex="1">
          <mxGeometry x="610" y="470" width="120" height="80" as="geometry" />
        </mxCell>
        <mxCell id="QhZxrAuBMPI-c6FXGaxj-62" value="User_ID" style="ellipse;whiteSpace=wrap;html=1;" parent="1" vertex="1">
          <mxGeometry x="480" y="470" width="120" height="80" as="geometry" />
        </mxCell>
        <mxCell id="SBIv5AnVOqmLbNRosyUx-1" value="contains" style="rhombus;whiteSpace=wrap;html=1;" vertex="1" parent="1">
          <mxGeometry x="490" y="80" width="80" height="80" as="geometry" />
        </mxCell>
        <mxCell id="SBIv5AnVOqmLbNRosyUx-2" value="" style="endArrow=none;html=1;rounded=0;" edge="1" parent="1" source="QhZxrAuBMPI-c6FXGaxj-2">
          <mxGeometry width="50" height="50" relative="1" as="geometry">
            <mxPoint x="490" y="160" as="sourcePoint" />
            <mxPoint x="530" y="160" as="targetPoint" />
          </mxGeometry>
        </mxCell>
        <mxCell id="SBIv5AnVOqmLbNRosyUx-3" value="" style="endArrow=none;html=1;rounded=0;entryX=0.5;entryY=1;entryDx=0;entryDy=0;exitX=0.5;exitY=0;exitDx=0;exitDy=0;" edge="1" parent="1" source="SBIv5AnVOqmLbNRosyUx-1" target="QhZxrAuBMPI-c6FXGaxj-43">
          <mxGeometry width="50" height="50" relative="1" as="geometry">
            <mxPoint x="541" y="230" as="sourcePoint" />
            <mxPoint x="545" y="164" as="targetPoint" />
          </mxGeometry>
        </mxCell>
        <mxCell id="SBIv5AnVOqmLbNRosyUx-4" value="1" style="text;html=1;align=center;verticalAlign=middle;whiteSpace=wrap;rounded=0;" vertex="1" parent="1">
          <mxGeometry x="530" y="190" width="60" height="30" as="geometry" />
        </mxCell>
        <mxCell id="SBIv5AnVOqmLbNRosyUx-5" value="N" style="text;html=1;align=center;verticalAlign=middle;whiteSpace=wrap;rounded=0;" vertex="1" parent="1">
          <mxGeometry x="530" y="10" width="60" height="30" as="geometry" />
        </mxCell>
      </root>
    </mxGraphModel>
  </diagram>
</mxfile>
